<svg viewBox="0 0 24 24" fill="none" xmlns="http://www.w3.org/2000/svg">
  <path fill="var(--color-icon, #000)" d="M21 11C21.5523 11 22 11.4477 22 12C22 12.5523 21.5523 13 21 13V11ZM2.29289 12.7071C1.90237 12.3166 1.90237 11.6834 2.29289 11.2929L8.65685 4.92893C9.04738 4.53841 9.68054 4.53841 10.0711 4.92893C10.4616 5.31946 10.4616 5.95262 10.0711 6.34315L4.41421 12L10.0711 17.6569C10.4616 18.0474 10.4616 18.6805 10.0711 19.0711C9.68054 19.4616 9.04738 19.4616 8.65685 19.0711L2.29289 12.7071ZM21 13L3 13V11L21 11V13Z"/>
</svg>
