<svg viewBox="0 0 24 24" fill="none" xmlns="http://www.w3.org/2000/svg">
  <path fill="var(--color-icon, #000)" d="M3 11C2.44772 11 2 11.4477 2 12C2 12.5523 2.44772 13 3 13L3 11ZM21.7071 12.7071C22.0976 12.3166 22.0976 11.6834 21.7071 11.2929L15.3431 4.92893C14.9526 4.53841 14.3195 4.53841 13.9289 4.92893C13.5384 5.31946 13.5384 5.95262 13.9289 6.34315L19.5858 12L13.9289 17.6569C13.5384 18.0474 13.5384 18.6805 13.9289 19.0711C14.3195 19.4616 14.9526 19.4616 15.3431 19.0711L21.7071 12.7071ZM3 13L21 13V11L3 11L3 13Z" />
</svg>
