<svg xmlns="http://www.w3.org/2000/svg" width="48" height="52" viewBox="0 0 48 52" fill="none">
  <path d="M42.9679 2.79498L43.1679 4.73943C43.1935 4.89603 43.2719 5.03916 43.3902 5.14498L44.5818 6.07554C44.6367 6.12345 44.6769 6.18591 44.6978 6.25571C44.7187 6.32551 44.7194 6.39979 44.6999 6.46998L43.8999 8.92415C43.8731 8.99256 43.8282 9.05237 43.7699 9.09715C43.7117 9.14193 43.6423 9.17 43.5693 9.17832L43.2138 9.19915C43.1408 9.20113 43.069 9.18131 43.0074 9.14222C42.9458 9.10313 42.8972 9.04654 42.8679 8.97971L42.6096 8.32276C42.5429 8.17757 42.4281 8.05983 42.2846 7.98943L39.5846 6.85609C39.5163 6.82248 39.4565 6.77374 39.4098 6.71358C39.3631 6.65342 39.3308 6.58341 39.3152 6.50887L39.0707 4.96165C39.0629 4.88911 39.0756 4.81582 39.1076 4.75022C39.1395 4.68461 39.1893 4.62936 39.2513 4.59082L42.7235 2.66721C42.7468 2.65096 42.7742 2.64142 42.8026 2.63962C42.8309 2.63782 42.8592 2.64383 42.8844 2.65701C42.9096 2.67018 42.9308 2.69 42.9455 2.71433C42.9602 2.73865 42.968 2.76655 42.9679 2.79498ZM38.7596 1.67137L38.8249 1.60471C38.8464 1.58102 38.8728 1.56234 38.9022 1.55C38.9317 1.53765 38.9636 1.53194 38.9955 1.53327C39.0274 1.53459 39.0587 1.54292 39.0871 1.55767C39.1154 1.57241 39.1402 1.59321 39.1596 1.61859L40.0624 2.71721C40.0837 2.74037 40.0993 2.76822 40.108 2.79852C40.1166 2.82881 40.118 2.86071 40.112 2.89164C40.1061 2.92257 40.093 2.95168 40.0737 2.97662C40.0545 3.00157 40.0297 3.02165 40.0013 3.03526L39.0902 3.54915C39.0656 3.56557 39.0372 3.57522 39.0077 3.57713C38.9782 3.57905 38.9487 3.57316 38.9223 3.56006C38.8958 3.54697 38.8732 3.52712 38.8569 3.50253C38.8405 3.47793 38.8309 3.44947 38.8291 3.41998L38.6249 2.10748C38.6152 2.0294 38.6222 1.95014 38.6454 1.87495C38.6686 1.79977 38.7076 1.73038 38.7596 1.67137ZM21.9652 15.6603L22.4513 12.9936C22.4653 12.9249 22.5022 12.8629 22.5559 12.8178C22.6096 12.7727 22.677 12.747 22.7471 12.745H23.8402C23.9127 12.7415 23.9826 12.717 24.0414 12.6743C24.1001 12.6316 24.1451 12.5726 24.1707 12.5047L26.2193 6.24776C26.2628 6.09011 26.2675 5.92431 26.2332 5.76443L25.6457 3.51998C25.611 3.36021 25.6152 3.19441 25.6582 3.03665L26.5777 0.232483C26.5876 0.202091 26.6037 0.17411 26.6251 0.150336C26.6465 0.126563 26.6726 0.107524 26.7018 0.0944434C26.7309 0.0813629 26.7625 0.07453 26.7945 0.0743838C26.8265 0.0742376 26.8581 0.0807814 26.8874 0.0935946L27.6527 0.415817C27.7149 0.443398 27.7648 0.492859 27.793 0.554816C27.8211 0.616774 27.8256 0.686915 27.8054 0.751927L27.0985 2.90609C27.0785 2.97127 27.0831 3.04155 27.1115 3.10353C27.14 3.16551 27.1902 3.21487 27.2527 3.2422L29.1249 4.02971C29.1953 4.05466 29.2711 4.06021 29.3444 4.0458C29.4177 4.03138 29.4858 3.99752 29.5416 3.94776L30.279 3.20748C30.3022 3.18605 30.3201 3.15965 30.3316 3.13028C30.343 3.1009 30.3476 3.06931 30.3451 3.03788C30.3426 3.00646 30.3329 2.97602 30.3169 2.94886C30.3009 2.9217 30.2789 2.89853 30.2527 2.88109L29.3957 2.25748C29.3396 2.21229 29.2979 2.15162 29.276 2.08298C29.254 2.01434 29.2526 1.94076 29.2721 1.87137L29.4193 1.42137C29.4292 1.39098 29.4454 1.363 29.4668 1.33922C29.4882 1.31545 29.5143 1.29641 29.5434 1.28333C29.5726 1.27025 29.6042 1.26342 29.6362 1.26327C29.6681 1.26313 29.6998 1.26967 29.7291 1.28248L31.2388 1.91582C31.3891 1.97078 31.5536 1.97323 31.7054 1.92276L36.5013 0.0297061C36.6512 -0.0192974 36.8143 -0.00732431 36.9554 0.063038L37.8221 0.569984C37.8495 0.583507 37.8732 0.603522 37.8911 0.628285C37.909 0.653049 37.9206 0.681812 37.9248 0.712071C37.929 0.742329 37.9258 0.773165 37.9154 0.801897C37.905 0.830629 37.8878 0.856387 37.8652 0.876927L37.0221 1.75887C36.9713 1.81794 36.9328 1.8866 36.909 1.96079C36.8851 2.03498 36.8763 2.11319 36.8832 2.19082L37.4388 5.72554C37.4596 5.86443 37.3721 5.93248 37.2457 5.87832L33.5624 4.32832C33.436 4.27554 33.3499 4.34221 33.3693 4.47832L33.961 8.23526C33.9778 8.31048 34.0115 8.38087 34.0597 8.44105C34.1078 8.50123 34.1691 8.54961 34.2388 8.58248L37.7291 10.0478C37.757 10.0551 37.7822 10.0703 37.8016 10.0916C37.8211 10.1128 37.834 10.1393 37.8389 10.1677C37.8437 10.1961 37.8402 10.2254 37.8289 10.2519C37.8176 10.2784 37.7988 10.3011 37.7749 10.3172L34.7985 13.0505C34.7412 13.0975 34.6727 13.1289 34.5997 13.1415C34.5267 13.1542 34.4516 13.1477 34.3818 13.1228L33.2277 12.638C33.0719 12.5799 32.9077 12.5475 32.7416 12.5422H28.6666C28.5939 12.5453 28.5238 12.5695 28.4648 12.612C28.4058 12.6544 28.3606 12.7132 28.3346 12.7811L27.3902 15.6686C27.3654 15.7367 27.3211 15.7959 27.2627 15.8389C27.2044 15.8819 27.1347 15.9067 27.0624 15.9103H22.1735C22.1419 15.912 22.1104 15.9063 22.0814 15.8937C22.0524 15.8811 22.0268 15.8619 22.0065 15.8376C21.9863 15.8133 21.972 15.7846 21.9648 15.7538C21.9576 15.723 21.9578 15.691 21.9652 15.6603ZM33.3943 15.9103H29.0471C29.0175 15.913 28.9877 15.908 28.9606 15.8957C28.9335 15.8834 28.9101 15.8642 28.8927 15.8401C28.8753 15.8159 28.8645 15.7877 28.8614 15.7581C28.8582 15.7285 28.8629 15.6986 28.8749 15.6714L29.3568 14.1922C29.3826 14.1244 29.4276 14.0657 29.4863 14.0232C29.5451 13.9808 29.615 13.9565 29.6874 13.9533H33.0874C33.1568 13.9556 33.2234 13.9814 33.2762 14.0266C33.329 14.0718 33.3648 14.1337 33.3777 14.2019L33.6082 15.6603C33.6143 15.6913 33.6133 15.7234 33.6053 15.754C33.5972 15.7846 33.5824 15.813 33.5618 15.837C33.5412 15.8611 33.5155 15.8802 33.4865 15.8929C33.4575 15.9055 33.426 15.9115 33.3943 15.9103ZM47.9541 5.74082L46.1596 11.2214C46.1018 11.369 45.9922 11.4905 45.8513 11.563L39.6999 14.2811C39.6704 14.2933 39.6439 14.3118 39.6222 14.3351C39.6004 14.3585 39.584 14.3863 39.574 14.4167C39.564 14.447 39.5606 14.4791 39.5641 14.5108C39.5676 14.5425 39.5779 14.5731 39.5943 14.6005L40.1666 15.6033C40.2364 15.7457 40.2522 15.9085 40.211 16.0616L39.3013 18.8492C39.2817 18.9237 39.2777 19.0015 39.2894 19.0777C39.3011 19.1539 39.3283 19.2269 39.3693 19.2922L39.7429 19.8144C39.83 19.9519 39.8833 20.108 39.8985 20.27L40.061 25.863C40.0567 26.024 40.0029 26.1797 39.9068 26.3089L34.7096 32.5019C34.61 32.6321 34.5437 32.7847 34.5166 32.9464L33.8804 38.1464C33.8554 38.3115 33.8087 38.4726 33.7416 38.6255L30.1402 46.2103C30.1117 46.2779 30.1028 46.352 30.1143 46.4244C30.1259 46.4968 30.1574 46.5646 30.2054 46.62L33.3013 49.8339C33.3492 49.8907 33.3827 49.9582 33.3989 50.0308C33.4151 50.1033 33.4136 50.1787 33.3943 50.2505L33.1916 50.8658C33.1654 50.9336 33.1201 50.9923 33.0612 51.0347C33.0022 51.0771 32.9322 51.1015 32.8596 51.1047H26.0846C26.0094 51.1001 25.9363 51.0782 25.871 51.0406C25.8056 51.003 25.7499 50.9508 25.7082 50.888L25.0902 49.8339C25.0161 49.6908 24.9893 49.5279 25.0138 49.3686L27.3999 38.1464C27.4264 37.9855 27.4111 37.8205 27.3554 37.6672L25.8166 33.9894C25.7645 33.8382 25.7645 33.674 25.8166 33.5228L27.4263 29.3728C27.4496 29.3012 27.4554 29.2251 27.443 29.1509C27.4307 29.0767 27.4007 29.0065 27.3554 28.9464L22.1916 22.8214C22.0999 22.7158 22.0457 22.7422 22.0693 22.8783L24.1791 35.7589C24.1985 35.9213 24.179 36.086 24.1221 36.2394L23.2221 38.388C23.1916 38.4537 23.1405 38.5077 23.0766 38.5418C23.0127 38.5759 22.9395 38.5882 22.8679 38.5769L19.8124 38.0547C19.7409 38.0457 19.6683 38.058 19.6038 38.0901C19.5393 38.1223 19.4858 38.1728 19.4499 38.2353L17.1568 42.7158C17.0943 42.8394 17.0179 42.8283 16.9999 42.6922L15.3332 32.7228C15.2981 32.5642 15.2175 32.4194 15.1013 32.3061L12.2916 29.8186C12.1874 29.7255 12.0818 29.763 12.0554 29.8992L11.7999 31.188C11.789 31.2635 11.796 31.3405 11.8201 31.4128C11.8442 31.4851 11.8848 31.5508 11.9388 31.6047L13.3638 32.863C13.4185 32.9164 13.4596 32.982 13.4838 33.0545C13.5079 33.127 13.5144 33.2042 13.5027 33.2797L12.0513 39.9783C12.0317 40.049 11.9934 40.1131 11.9403 40.1637C11.8872 40.2143 11.8214 40.2496 11.7499 40.2658L5.50683 41.3408C5.43155 41.3587 5.36109 41.3928 5.30039 41.4408C5.23968 41.4888 5.19021 41.5495 5.15544 41.6186L1.68322 49.3964C1.66748 49.4208 1.65908 49.4492 1.65904 49.4782C1.65899 49.5072 1.6673 49.5357 1.68296 49.5601C1.69862 49.5846 1.72098 49.604 1.74738 49.6161C1.77377 49.6282 1.80309 49.6324 1.83183 49.6283H2.86794C2.94301 49.6236 3.01585 49.6009 3.08037 49.5623C3.14489 49.5236 3.19921 49.4701 3.23877 49.4061L4.72072 46.6755C4.80445 46.534 4.91882 46.413 5.05544 46.3214L12.9166 41.5103C12.9784 41.4749 13.0499 41.4603 13.1206 41.4685C13.1913 41.4768 13.2576 41.5075 13.3096 41.5561L15.7624 44.0269C15.7848 44.0433 15.8019 44.066 15.8113 44.0922C15.8207 44.1183 15.8221 44.1467 15.8152 44.1736C15.8083 44.2005 15.7935 44.2247 15.7727 44.2432C15.7519 44.2616 15.7261 44.2733 15.6985 44.2769L5.93322 47.2255C5.90446 47.2279 5.87716 47.2392 5.85511 47.2578C5.83306 47.2764 5.81735 47.3015 5.81017 47.3294C5.80299 47.3574 5.8047 47.3868 5.81505 47.4138C5.82541 47.4407 5.84389 47.4638 5.86794 47.4797L8.14572 49.8422C8.19576 49.9003 8.2329 49.9683 8.25469 50.0418C8.27648 50.1153 8.28241 50.1926 8.27211 50.2686L8.15683 50.8617C8.14093 50.93 8.1029 50.9911 8.04864 51.0356C7.99438 51.08 7.92694 51.1053 7.85683 51.1075H1.06238C0.987004 51.1028 0.913714 51.0808 0.848199 51.0433C0.782684 51.0057 0.726706 50.9535 0.684608 50.8908L0.0693293 49.8339C-0.00388522 49.693 -0.0198104 49.5293 0.0248843 49.3769L3.63877 38.9658C3.68252 38.814 3.66714 38.6512 3.59572 38.5103L1.53461 34.9533C1.50125 34.8905 1.48904 34.8186 1.4998 34.7483C1.51056 34.678 1.54371 34.613 1.59433 34.563L2.52766 33.6978C2.65038 33.5944 2.80352 33.5339 2.96377 33.5255H5.07905C5.23934 33.5177 5.39279 33.4583 5.51655 33.3561L21.7013 18.3478C21.8102 18.2352 21.8752 18.0874 21.8846 17.9311V17.7922C21.8846 17.7593 21.8911 17.7268 21.9038 17.6964C21.9165 17.6661 21.935 17.6385 21.9584 17.6154C21.9818 17.5923 22.0095 17.574 22.04 17.5617C22.0705 17.5494 22.1031 17.5432 22.136 17.5436L31.9221 17.6061C31.992 17.6089 32.0588 17.6353 32.1118 17.681C32.1647 17.7266 32.2007 17.7888 32.2138 17.8575L33.2166 24.2297C33.2319 24.387 33.1861 24.5441 33.0888 24.6686L28.5263 29.9464C28.4802 30.0044 28.4513 30.0742 28.4427 30.1478C28.4341 30.2214 28.4462 30.2959 28.4777 30.363L30.0304 33.388C30.0982 33.5351 30.1195 33.6994 30.0916 33.8589L26.9596 47.9936C26.9346 48.1504 26.965 48.311 27.0457 48.4478L27.6929 49.413C27.7391 49.4743 27.7981 49.5248 27.8657 49.561C27.9333 49.5972 28.008 49.6183 28.0846 49.6228H29.2888C29.4277 49.6228 29.4791 49.5283 29.4013 49.413L28.5624 48.1478C28.4814 48.0111 28.4518 47.8501 28.4791 47.6936L31.7402 33.795C31.7806 33.6326 31.834 33.4738 31.8999 33.32L35.0249 26.1144C35.0586 26.0474 35.1085 25.99 35.1701 25.9473C35.2318 25.9046 35.3031 25.878 35.3777 25.87L38.7332 25.6741C38.8721 25.6672 38.8874 25.6005 38.7707 25.5269L34.9888 23.1658C34.8612 23.0725 34.7715 22.9365 34.736 22.7825L33.9527 17.7825C33.9466 17.7516 33.9475 17.7197 33.9555 17.6893C33.9635 17.6589 33.9782 17.6306 33.9987 17.6067C34.0191 17.5828 34.0447 17.5638 34.0736 17.5512C34.1024 17.5386 34.1337 17.5326 34.1652 17.5339H35.2943C35.4606 17.5402 35.6248 17.5735 35.7804 17.6325L38.0346 18.5797C38.064 18.5925 38.0957 18.5991 38.1278 18.599C38.1599 18.5988 38.1915 18.592 38.2208 18.5789C38.2501 18.5659 38.2763 18.5468 38.2978 18.523C38.3193 18.4993 38.3357 18.4713 38.3457 18.4408L39.3304 15.4672C39.3505 15.402 39.3458 15.3318 39.3174 15.2698C39.289 15.2078 39.2388 15.1584 39.1763 15.1311L38.2527 14.7422C38.2231 14.7311 38.1965 14.7135 38.1746 14.6907C38.1528 14.6679 38.1363 14.6405 38.1264 14.6106C38.1166 14.5806 38.1136 14.5488 38.1176 14.5175C38.1217 14.4862 38.1327 14.4562 38.1499 14.4297L40.1138 11.2353C40.1576 11.1722 40.2143 11.1191 40.2801 11.0796C40.346 11.0401 40.4194 11.015 40.4957 11.0061L44.8846 10.7422C44.9571 10.7341 45.0261 10.7063 45.0839 10.6617C45.1417 10.6171 45.1861 10.5575 45.2124 10.4894L46.6402 6.12832C46.6591 6.05783 46.6576 5.9834 46.6357 5.91377C46.6138 5.84414 46.5724 5.78221 46.5166 5.73526L44.8721 4.47276C44.7508 4.36918 44.6701 4.226 44.6443 4.06859L44.6082 3.72971C44.5929 3.59082 44.6791 3.53526 44.7985 3.60609L47.8207 5.36304C47.8812 5.40209 47.927 5.46004 47.9512 5.52786C47.9753 5.59569 47.9763 5.66958 47.9541 5.73804V5.74082Z" fill="var(--color-icon)"/>
</svg>
