<svg xmlns="http://www.w3.org/2000/svg" width="32" height="32" viewBox="0 0 32 32" fill="none">
  <g stroke="var(--color-icon, #000)" stroke-linecap="round" stroke-linejoin="round">
    <path d="M1 10.19C4.84 6.36 10.14 4 16 4C21.86 4 27.15 6.36 31 10.19" />
    <path d="M6.91016 15.09C9.24016 12.78 12.4502 11.35 16.0002 11.35C19.5502 11.35 22.7602 12.78 25.0902 15.09"/>
    <path d="M12.8203 19.9999C13.6403 19.1899 14.7603 18.6899 16.0003 18.6899C17.2403 18.6899 18.3603 19.1899 19.1903 19.9899"/>
  </g>
  <path d="M15.9998 28.48C17.375 28.48 18.4898 27.3652 18.4898 25.99C18.4898 24.6148 17.375 23.5 15.9998 23.5C14.6246 23.5 13.5098 24.6148 13.5098 25.99C13.5098 27.3652 14.6246 28.48 15.9998 28.48Z" fill="var(--color-icon-accent, #B3976B)"/>
</svg>