<svg width="32" height="32" viewBox="0 0 32 32" fill="none" xmlns="http://www.w3.org/2000/svg">
  <path d="M27.8018 10.6184C24.7877 7.44453 20.7739 5.69702 16.5004 5.69702C12.2269 5.69702 8.21251 7.44453 5.19842 10.619C4.93516 10.8968 4.93516 11.3486 5.19842 11.6265C5.45413 11.8957 5.89946 11.8957 6.15518 11.6265C8.91356 8.72066 12.5875 7.12092 16.5004 7.12092C20.4133 7.12092 24.0867 8.72066 26.8456 11.6252C26.9738 11.7596 27.1437 11.8341 27.324 11.8341C27.5043 11.8341 27.6748 11.7602 27.8024 11.6252C28.0662 11.3474 28.0662 10.8956 27.8024 10.6178H27.8018V10.6184Z" fill="var(--color-icon, #000)" />
  <path d="M16.4987 11.6287C13.7322 11.6287 11.1339 12.7601 9.18269 14.8147C9.05512 14.949 8.98438 15.1279 8.98438 15.3185C8.98438 15.509 9.05512 15.6879 9.18269 15.8222C9.4384 16.0915 9.88373 16.0908 10.1394 15.8222C11.8361 14.0368 14.0946 13.0532 16.4993 13.0532C18.904 13.0532 21.1637 14.0362 22.8586 15.8222C22.9867 15.9565 23.1566 16.031 23.337 16.031C23.5173 16.031 23.6878 15.9571 23.8154 15.8222C24.0792 15.5444 24.0792 15.0925 23.8154 14.8147C21.8636 12.7601 19.2652 11.6287 16.4987 11.6287Z" fill="var(--color-icon, #000)" />
  <path d="M16.4999 17.408C15.2011 17.408 13.9816 17.9392 13.066 18.9039C12.8022 19.1817 12.8022 19.6336 13.066 19.9114C13.1936 20.0457 13.3635 20.1202 13.5444 20.1202C13.7253 20.1202 13.8947 20.0463 14.0228 19.9114C14.6833 19.2159 15.5629 18.8331 16.4999 18.8331C17.437 18.8331 18.3166 19.2159 18.9771 19.9114C19.2328 20.1806 19.6781 20.1806 19.9339 19.9114C20.1971 19.6336 20.1971 19.1817 19.9339 18.9039C19.0177 17.9398 17.7977 17.4092 16.4999 17.4092V17.408Z" fill="var(--color-icon, #000)" />
  <path d="M16.4999 21.9314C15.2521 21.9314 14.2373 22.9999 14.2373 24.3139C14.2373 25.6279 15.2521 26.6964 16.4999 26.6964C17.7478 26.6964 18.7631 25.6279 18.7631 24.3139C18.7631 22.9999 17.7478 21.9314 16.4999 21.9314Z" fill="currentColor"/>
</svg>
