<svg width="32" height="32" viewBox="0 0 32 32" fill="none" xmlns="http://www.w3.org/2000/svg">
  <g stroke="var(--color-icon, #000)" stroke-miterlimit="10">
    <path d="M5.5 19.5H4.5C2.8 19.5 1.5 18.7 1.5 17V8C1.5 6.3 2.8 4.5 4.5 4.5H19C20.5 4.5 21.5 5.5 21.5 7V14C21.5 17.3 19.3 19.5 16 19.5H8.5L5.5 24V19.5Z"/>
    <path d="M15.5 17.5C17.1569 17.5 18.5 16.1569 18.5 14.5C18.5 12.8431 17.1569 11.5 15.5 11.5C13.8431 11.5 12.5 12.8431 12.5 14.5C12.5 16.1569 13.8431 17.5 15.5 17.5Z"/>
  </g>
  <g stroke="var(--color-icon-accent, #B3976B)">
    <path d="M27 24.5H27.5C29.2 24.5 30.5 23.2 30.5 21.5V11.5C30.5 9.8 29.2 8.5 27.5 8.5H16C12.7 8.5 9.5 11.2 9.5 14.5V21.5C9.5 23.2 11.3 24.5 13 24.5H23.5L27 28.5V24.5Z" stroke="var(--color-icon-accent, #B3976B)" stroke-miterlimit="10"/>
    <path d="M15.5 15.5C16.0523 15.5 16.5 15.0523 16.5 14.5C16.5 13.9477 16.0523 13.5 15.5 13.5C14.9477 13.5 14.5 13.9477 14.5 14.5C14.5 15.0523 14.9477 15.5 15.5 15.5Z" fill="var(--color-icon-accent, #B3976B)"/>
  </g>
</svg>
