<svg width="32" height="32" viewBox="0 0 32 32" fill="none" xmlns="http://www.w3.org/2000/svg">
  <g stroke="var(--color-icon, #000)" stroke-miterlimit="10" stroke-linecap="round">
    <path d="M30.5 6.5H26.5" />
    <path d="M20.5 6.5H1.5" />
    <path d="M30.5 16.5H19" />
    <path d="M13 16.5H1.5" />
    <path d="M30.5 25.5H12" />
    <path d="M6 25.5H1.5" />
  </g>
  <g stroke="var(--color-icon-acent, #B3976B)" stroke-miterlimit="10">
    <path d="M13.5 16.5a2.5 2.5 0 1 0 5 0a2.5 2.5 0 1 0 -5 0" />
    <path d="M21 6.5a2.5 2.5 0 1 0 5 0a2.5 2.5 0 1 0 -5 0" />
    <path d="M6.5 25.5a2.5 2.5 0 1 0 5 0a2.5 2.5 0 1 0 -5 0" />
  </g>
</svg>
