<svg width="32" height="32" viewBox="0 0 32 32" fill="none" xmlns="http://www.w3.org/2000/svg">
  <path d="M4.00325 9.26437C4.03265 8.9939 4.26321 8.79093 4.53343 8.79702H18.1704C18.4149 7.60405 19.4678 6.69702 20.7247 6.69702C21.9816 6.69702 23.0345 7.60358 23.279 8.79702H26.4699C26.6095 8.79515 26.7444 8.84952 26.8443 8.94796C26.9441 9.0464 26.9997 9.1814 26.9997 9.32202C26.9997 9.46265 26.9437 9.59718 26.8443 9.69608C26.7448 9.79499 26.61 9.84936 26.4699 9.84702H23.279C23.0345 11.04 21.9816 11.947 20.7247 11.947C19.4678 11.947 18.4149 11.0405 18.1704 9.84702H4.53343C4.38315 9.8503 4.23847 9.78843 4.13673 9.67687C4.03545 9.56483 3.98644 9.41483 4.00325 9.26437ZM4.00325 17.1394C4.03265 16.8689 4.26321 16.6659 4.53343 16.672H12.9474C13.1919 15.4791 14.2453 14.572 15.5017 14.572C16.7581 14.572 17.8115 15.4786 18.056 16.672H26.4699C26.6095 16.6701 26.7444 16.7245 26.8443 16.823C26.9441 16.9214 26.9997 17.0564 26.9997 17.197C26.9997 17.3376 26.9437 17.4722 26.8443 17.5711C26.7448 17.67 26.61 17.7244 26.4699 17.722H18.056C17.8115 18.915 16.7586 19.822 15.5017 19.822C14.2448 19.822 13.1919 18.9155 12.9474 17.722H4.53343C4.38315 17.7253 4.23847 17.6634 4.13673 17.5519C4.03498 17.4403 3.98691 17.2894 4.00325 17.1394ZM4.00325 25.0144C4.03265 24.7439 4.26321 24.5409 4.53343 24.547H7.72436C7.96892 23.3541 9.02229 22.447 10.2787 22.447C11.5351 22.447 12.5885 23.3536 12.833 24.547H26.4699C26.6095 24.5451 26.7444 24.5995 26.8443 24.698C26.9437 24.7969 26.9997 24.9314 26.9997 25.072C26.9997 25.2126 26.9437 25.3472 26.8443 25.4461C26.7448 25.545 26.61 25.5994 26.4699 25.597H12.833C12.5885 26.79 11.5356 27.697 10.2787 27.697C9.02183 27.697 7.96892 26.7905 7.72436 25.597H4.53343C4.38315 25.6003 4.23847 25.5384 4.13673 25.4269C4.03498 25.3153 3.98691 25.1644 4.00325 25.0144ZM8.71193 25.072C8.71193 25.9481 9.40733 26.647 10.2787 26.647C11.15 26.647 11.8455 25.9481 11.8455 25.072C11.8455 24.1959 11.15 23.497 10.2787 23.497C9.40733 23.497 8.71193 24.1959 8.71193 25.072ZM13.9349 17.197C13.9349 18.0731 14.6303 18.772 15.5017 18.772C16.373 18.772 17.0685 18.0731 17.0685 17.197C17.0685 16.3209 16.373 15.622 15.5017 15.622C14.6303 15.622 13.9349 16.3209 13.9349 17.197ZM19.1579 9.32202C19.1579 10.1981 19.8533 10.897 20.7247 10.897C21.5961 10.897 22.2915 10.1981 22.2915 9.32202C22.2915 8.44593 21.5961 7.74702 20.7247 7.74702C19.8533 7.74702 19.1579 8.44593 19.1579 9.32202Z" fill="var(--color-icon, #000)"/>
  <mask id="mask0_2220_83251" style="mask-type:alpha" maskUnits="userSpaceOnUse" x="4" y="6" width="23" height="22">
    <path d="M4.00325 9.26437C4.03265 8.9939 4.26321 8.79093 4.53343 8.79702H18.1704C18.4149 7.60405 19.4678 6.69702 20.7247 6.69702C21.9816 6.69702 23.0345 7.60358 23.279 8.79702H26.4699C26.6095 8.79515 26.7444 8.84952 26.8443 8.94796C26.9441 9.0464 26.9997 9.1814 26.9997 9.32202C26.9997 9.46265 26.9437 9.59718 26.8443 9.69608C26.7448 9.79499 26.61 9.84936 26.4699 9.84702H23.279C23.0345 11.04 21.9816 11.947 20.7247 11.947C19.4678 11.947 18.4149 11.0405 18.1704 9.84702H4.53343C4.38315 9.8503 4.23847 9.78843 4.13673 9.67687C4.03545 9.56483 3.98644 9.41483 4.00325 9.26437ZM4.00325 17.1394C4.03265 16.8689 4.26321 16.6659 4.53343 16.672H12.9474C13.1919 15.4791 14.2453 14.572 15.5017 14.572C16.7581 14.572 17.8115 15.4786 18.056 16.672H26.4699C26.6095 16.6701 26.7444 16.7245 26.8443 16.823C26.9441 16.9214 26.9997 17.0564 26.9997 17.197C26.9997 17.3376 26.9437 17.4722 26.8443 17.5711C26.7448 17.67 26.61 17.7244 26.4699 17.722H18.056C17.8115 18.915 16.7586 19.822 15.5017 19.822C14.2448 19.822 13.1919 18.9155 12.9474 17.722H4.53343C4.38315 17.7253 4.23847 17.6634 4.13673 17.5519C4.03498 17.4403 3.98691 17.2894 4.00325 17.1394ZM4.00325 25.0144C4.03265 24.7439 4.26321 24.5409 4.53343 24.547H7.72436C7.96892 23.3541 9.02229 22.447 10.2787 22.447C11.5351 22.447 12.5885 23.3536 12.833 24.547H26.4699C26.6095 24.5451 26.7444 24.5995 26.8443 24.698C26.9437 24.7969 26.9997 24.9314 26.9997 25.072C26.9997 25.2126 26.9437 25.3472 26.8443 25.4461C26.7448 25.545 26.61 25.5994 26.4699 25.597H12.833C12.5885 26.79 11.5356 27.697 10.2787 27.697C9.02183 27.697 7.96892 26.7905 7.72436 25.597H4.53343C4.38315 25.6003 4.23847 25.5384 4.13673 25.4269C4.03498 25.3153 3.98691 25.1644 4.00325 25.0144ZM8.71193 25.072C8.71193 25.9481 9.40733 26.647 10.2787 26.647C11.15 26.647 11.8455 25.9481 11.8455 25.072C11.8455 24.1959 11.15 23.497 10.2787 23.497C9.40733 23.497 8.71193 24.1959 8.71193 25.072ZM13.9349 17.197C13.9349 18.0731 14.6303 18.772 15.5017 18.772C16.373 18.772 17.0685 18.0731 17.0685 17.197C17.0685 16.3209 16.373 15.622 15.5017 15.622C14.6303 15.622 13.9349 16.3209 13.9349 17.197ZM19.1579 9.32202C19.1579 10.1981 19.8533 10.897 20.7247 10.897C21.5961 10.897 22.2915 10.1981 22.2915 9.32202C22.2915 8.44593 21.5961 7.74702 20.7247 7.74702C19.8533 7.74702 19.1579 8.44593 19.1579 9.32202Z" fill="transparent"/>
  </mask>
  <g mask="url(#mask0_2220_83251)">
    <rect x="13" y="13.697" width="5" height="7" fill="var(--color-icon, #000)"/>
    <rect x="7.69922" y="20.697" width="5.2" height="7" fill="var(--color-icon, #000)"/>
    <rect x="18" y="5.69702" width="5.4" height="7" fill="var(--color-icon, #000)"/>
  </g>
</svg>
