<svg xmlns="http://www.w3.org/2000/svg" fill="none" viewBox="0 0 36 36">
  <path stroke="var(--color-icon, #000)" stroke-width=".97" d="m7.32 20.66 2.52 2.45V28v-9.62c0-.44.34-.79.75-.79h15.78c.42 0 .75.35.75.79V28v-4.89l2.55-2.45m-.03-11.82h2.53c.56 0 1.01.45 1.01 1.01v5.3c0 .34-.17.65-.45.84l-1.21.81a.42.42 0 0 1-.24.07h-1.64M7.34 8.85H4.81c-.56 0-1.01.45-1.01 1.01v5.3c0 .34.17.65.45.84l1.21.81c.07.05.16.07.24.07h1.64m21.19 16.05v1.49c0 .6.49 1.09 1.09 1.09h1.86c.6 0 1.09-.49 1.09-1.09v-1.49m-24.08 0v1.49c0 .6-.49 1.09-1.09 1.09H5.54c-.6 0-1.09-.49-1.09-1.09v-1.49M3 28.01h30.98m-4.34-13.02s-4.96-.58-11.14-.58c-6.18 0-11.18.58-11.18.58l.03-6.14h22.3v6.14h-.01Zm4.34 17.73V22.49c0-1-.82-1.82-1.82-1.82h-2.49V9.87c0-.34 0-.68-.03-1.02l-.16-1.71c-.1-1.8-.47-3.58-1.09-5.28-.3-.82-1.08-1.36-1.95-1.36H10.55c-.87 0-1.65.54-1.95 1.36-.62 1.7-.99 3.48-1.09 5.28 0 0-.19 2.39-.19 2.73v10.8H4.83c-1.01 0-1.82.81-1.82 1.82v10.23h30.98-.01ZM3.13 24.6h6.82m17.13 0h6.82"/>
  <g stroke="var(--color-icon-accent, #B3976B)" stroke-width=".97">
    <path d="M13.28 22.93h10.36m-5.13-6.98v-3.41M13.28 20.66h10.35m-10.35 4.41h10.35"/>
  </g>
</svg>
