<svg xmlns="http://www.w3.org/2000/svg" viewBox="0 0 32 32">
  <g fill="var(--color-icon, #000)">
    <path d="M15.982 2.922c4.253 0 4.758.016 6.437.093 1.553.07 2.397.33 2.959.548a4.934 4.934 0 0 1 1.831 1.192c.53.514.937 1.14 1.192 1.831.218.562.477 1.405.548 2.959.077 1.68.093 2.183.093 6.437 0 4.254-.016 4.758-.093 6.437-.07 1.553-.33 2.397-.548 2.959a5.276 5.276 0 0 1-3.023 3.023c-.562.218-1.405.477-2.959.548-1.68.077-2.183.094-6.437.094-4.254 0-4.758-.017-6.437-.093-1.554-.071-2.397-.33-2.959-.549a4.934 4.934 0 0 1-1.831-1.192 4.935 4.935 0 0 1-1.192-1.831c-.218-.562-.478-1.405-.548-2.958-.077-1.68-.093-2.184-.093-6.438s.016-4.757.092-6.437c.071-1.554.33-2.397.549-2.959a4.93 4.93 0 0 1 1.192-1.831 4.935 4.935 0 0 1 1.831-1.192c.562-.218 1.405-.478 2.959-.548 1.68-.077 2.183-.093 6.437-.093Zm0-2.87c-4.326 0-4.87.018-6.568.095-1.696.078-2.854.347-3.867.74a7.806 7.806 0 0 0-2.822 1.838A7.814 7.814 0 0 0 .887 5.547C.494 6.56.225 7.717.147 9.414.07 11.113.052 11.656.052 15.982s.019 4.87.097 6.568c.077 1.696.346 2.854.74 3.867a7.806 7.806 0 0 0 1.837 2.821 7.812 7.812 0 0 0 2.822 1.838c1.013.393 2.171.663 3.867.74 1.7.078 2.242.097 6.568.097s4.87-.019 6.568-.096c1.696-.078 2.854-.347 3.867-.74a8.147 8.147 0 0 0 4.66-4.66c.393-1.013.662-2.171.74-3.867.077-1.699.096-2.242.096-6.568s-.019-4.87-.096-6.568c-.078-1.696-.347-2.854-.74-3.867a7.806 7.806 0 0 0-1.838-2.822A7.807 7.807 0 0 0 26.417.888C25.404.494 24.246.225 22.55.148 20.851.07 20.308.05 15.982.05Z"/>
    <path d="M15.982 7.801a8.18 8.18 0 1 0 0 16.362 8.18 8.18 0 0 0 0-16.362Zm0 13.491a5.31 5.31 0 1 1 0-10.62 5.31 5.31 0 0 1 0 10.62ZM24.485 9.39a1.912 1.912 0 1 0 0-3.823 1.912 1.912 0 0 0 0 3.823Z"/>
  </g>
</svg>