<svg xmlns="http://www.w3.org/2000/svg" viewBox="0 0 193 19" fill="var(--color-icon, #000)">
  <path d="M191.094 14.876c0-.582-.483-1.062-1.068-1.062h-2.084v3.162h.56v-1.037h1.169l.813 1.037h.712l-.839-1.088c.432-.126.762-.531.762-1.012h-.025Zm-2.567.506V14.37h1.499c.28 0 .509.228.509.506a.509.509 0 0 1-.509.506h-1.499Z"/>
  <path d="M189.366 11.79a3.626 3.626 0 0 0-3.635 3.618c0 1.998 1.627 3.592 3.635 3.592 2.007 0 3.634-1.62 3.634-3.592 0-1.974-1.627-3.618-3.634-3.618Zm0 6.653c-1.678 0-3.05-1.366-3.05-3.036s1.372-3.06 3.05-3.06a3.057 3.057 0 0 1 3.049 3.06 3.035 3.035 0 0 1-3.049 3.036ZM45.925 0h-13.14c-.33 0-.762.202-.966.48L23.61 11.259c-.203.253-.533.253-.711 0L14.689.481C14.487.228 14.055 0 13.725 0H.61C.28 0 0 .278 0 .607v17.609c0 .329.28.582.61.582h9.378a.59.59 0 0 0 .585-.582V8.728c0-.329.152-.38.355-.126l7.421 9.74c.204.253.636.48.966.48h7.853c.33 0 .763-.201.966-.48l7.421-9.74c.204-.253.356-.203.356.126v9.513c0 .329.28.582.61.582h9.404a.59.59 0 0 0 .584-.582V.607c0-.329-.28-.607-.584-.607ZM137.265 0h-34.818c-.33 0-.762.202-.966.48l-1.423 1.873c-.203.253-.356.734-.356 1.062v11.992c0 .33.153.81.356 1.063l1.423 1.872c.204.253.636.48.966.48h34.818c.331 0 .61-.277.61-.606V13.51a.617.617 0 0 0-.61-.607h-26.431a.596.596 0 0 1-.585-.607V6.502a.59.59 0 0 1 .585-.582h26.431c.331 0 .61-.278.61-.607V.607a.617.617 0 0 0-.61-.607ZM170.101 7.337c-.254-.203-.229-.506.076-.658l12.199-6.4c.305-.153.255-.279-.076-.279h-14.232c-.331 0-.839.126-1.118.278l-12.886 6.78c-.279.152-.533 0-.533-.328V.582a.59.59 0 0 0-.585-.582h-9.403a.59.59 0 0 0-.585.582v17.634c0 .329.28.607.585.607h9.403c.33 0 .585-.278.585-.607v-2.201c0-.33.228-.709.533-.86l7.371-3.871c.279-.152.737-.102.991.1l8.666 7.06c.254.202.737.379 1.068.379h11.462c.33 0 .381-.177.127-.38L170.126 7.337h-.025ZM82.852.48C82.65.229 82.217 0 81.886 0H65.19c-.33 0-.762.202-.966.48L50.626 18.343c-.203.253-.101.48.229.48h10.344c.33 0 .762-.227.966-.48l1.855-2.429c.203-.252.635-.48.966-.48h17.078c.33 0 .763.202.966.48l1.855 2.43c.204.252.636.48.966.48h10.344c.33 0 .432-.203.229-.456L82.852.482Zm-4.27 9.741H68.545c-.33 0-.432-.228-.229-.48l3.1-4.1c.204-.252.636-.48.966-.48h2.39c.33 0 .762.203.965.48l3.1 4.1c.204.252.102.48-.228.48h-.025Z"/>
</svg>
