<svg xmlns="http://www.w3.org/2000/svg" width="32" height="32" viewBox="0 0 32 32" fill="none">
  <g stroke="var(--color-icon, #000)" stroke-miterlimit="10">
    <path d="M22.36 26.03C21.2 26.77 19.94 27.29 18.59 27.59V30L13.41 30.01V27.6C12.06 27.3 10.8 26.78 9.64 26.04L7.94 27.74L4.27 24.07L5.97 22.37C5.23 21.21 4.71 19.95 4.41 18.6H2V13.41H4.4C4.7 12.07 5.22 10.8 5.96 9.64L4.26 7.94L7.93 4.27L9.63 5.97C10.79 5.23 12.06 4.71 13.4 4.41V2H18.59V4.4C19.26 4.55 19.92 4.76 20.56 5.02C20.75 5.1 20.94 5.18 21.12 5.27C21.49 5.45 21.85 5.64 22.19 5.85C22.24 5.89 22.3 5.92 22.36 5.96L24.06 4.26L27.73 7.93L26.03 9.63C26.77 10.79 27.29 12.05 27.59 13.4H30V18.59H27.59C27.29 19.94 26.77 21.2 26.03 22.36L27.73 24.06L24.06 27.73L22.36 26.03Z" />
    <path d="M16 24C20.4183 24 24 20.4183 24 16C24 11.5817 20.4183 8 16 8C11.5817 8 8 11.5817 8 16C8 20.4183 11.5817 24 16 24Z" />
  </g>
  <path d="M12.5 16L15.5 19L20.5 13.5" stroke="var(--color-icon-accent, #B3976B)" stroke-miterlimit="10"/>
</svg>
