<svg xmlns="http://www.w3.org/2000/svg" width="32" height="32" viewBox="0 0 32 32" fill="none">
  <g stroke="var(--color-icon, #000)">
    <path d="M3.13 11C2.4 12.69 2 14.55 2 16.5C2 24.23 8.27 30.5 16 30.5C23.73 30.5 30 24.23 30 16.5C30 8.77 23.73 2.5 16 2.5C13.03 2.5 10.27 3.43 8 5.01"/>
    <path d="M19.7704 8.29C18.8404 6.19 17.5804 4.23 16.0004 2.5C12.5004 6.33 10.5104 11.31 10.4004 16.5C10.5104 21.69 12.5004 26.67 16.0004 30.5C19.5004 26.67 21.4904 21.69 21.6004 16.5C21.5804 15.49 21.4804 14.48 21.3204 13.5C21.3204 13.5 21.3204 13.49 21.3204 13.48"/>
    <path d="M30 16.5H2"/>
  </g>
  <g stroke="var(--color-icon-accent, #B3976B)">
    <path d="M5 11C6.933 11 8.5 9.433 8.5 7.5C8.5 5.567 6.933 4 5 4C3.067 4 1.5 5.567 1.5 7.5C1.5 9.433 3.067 11 5 11Z"/>
    <path d="M21 13.5C22.5188 13.5 23.75 12.2688 23.75 10.75C23.75 9.23122 22.5188 8 21 8C19.4812 8 18.25 9.23122 18.25 10.75C18.25 12.2688 19.4812 13.5 21 13.5Z"/>
  </g>
</svg>
