<svg width="32" height="32" viewBox="0 0 32 32" fill="none" xmlns="http://www.w3.org/2000/svg">
<path d="M16.002 15.9277V31.5667" stroke="black"/>
<path d="M17.5317 21.9007C17.3095 21.9007 17.1095 21.7415 17.0688 21.5156C17.0244 21.2601 17.1947 21.0157 17.4465 20.9712C17.5836 20.9453 17.7206 20.9194 17.8539 20.886C18.1057 20.8268 18.3575 20.986 18.4168 21.2379C18.476 21.4897 18.3168 21.7415 18.065 21.8007C17.9131 21.8341 17.7613 21.8674 17.6095 21.8933C17.5798 21.897 17.5539 21.9007 17.528 21.9007H17.5317ZM14.0247 21.8156C13.9914 21.8156 13.9543 21.8119 13.9173 21.8045C13.7655 21.7711 13.6136 21.7304 13.4655 21.6897C13.2174 21.6193 13.073 21.3601 13.1433 21.1082C13.2137 20.8564 13.4729 20.712 13.7247 20.7861C13.8581 20.8231 13.9951 20.8601 14.1284 20.8897C14.3802 20.949 14.5395 21.2008 14.4802 21.4526C14.4284 21.6711 14.2358 21.8156 14.0247 21.8156ZM21.1498 20.3343C21.0054 20.3343 20.8647 20.2676 20.7721 20.1454C20.6165 19.938 20.6573 19.6417 20.8684 19.4899C20.9795 19.4084 21.0868 19.3196 21.1942 19.2307C21.3942 19.064 21.6905 19.09 21.8571 19.2899C22.0238 19.4899 21.9979 19.7862 21.7979 19.9528C21.6794 20.0528 21.5572 20.1491 21.4313 20.2417C21.3461 20.3046 21.2498 20.3343 21.1498 20.3343ZM10.4918 20.0713C10.3844 20.0713 10.2807 20.0343 10.1918 19.9639C10.0733 19.8639 9.9548 19.7602 9.84 19.6529C9.65113 19.4751 9.64003 19.1788 9.81408 18.99C9.99184 18.8011 10.2881 18.79 10.477 18.9677C10.577 19.0603 10.6843 19.1529 10.7917 19.2418C10.9917 19.4084 11.0176 19.7047 10.851 19.9047C10.7584 20.0158 10.6251 20.075 10.4881 20.075L10.4918 20.0713ZM23.6421 17.2902C23.5754 17.2902 23.5088 17.2754 23.4421 17.2457C23.2088 17.1346 23.1051 16.8569 23.2162 16.6199C23.2755 16.494 23.331 16.368 23.3829 16.2384C23.4792 15.9977 23.7532 15.8792 23.9939 15.9792C24.2346 16.0755 24.3494 16.3495 24.2532 16.5902C24.1939 16.7347 24.1309 16.8791 24.0643 17.0198C23.9828 17.1902 23.8162 17.2902 23.6384 17.2902H23.6421ZM8.16242 16.9013C7.97725 16.9013 7.7995 16.7902 7.72914 16.6088C7.66989 16.4643 7.61434 16.3199 7.56619 16.1718C7.48102 15.9273 7.61434 15.6607 7.85876 15.5755C8.10317 15.4904 8.3698 15.6237 8.45498 15.8681C8.49942 15.9977 8.54756 16.1273 8.59941 16.2569C8.6957 16.4977 8.58089 16.7717 8.34018 16.868C8.28092 16.8902 8.22167 16.9013 8.16242 16.9013ZM24.3642 13.4239C24.1198 13.4239 23.9124 13.2351 23.8976 12.987C23.8865 12.8462 23.8754 12.7092 23.8569 12.5759C23.8236 12.3204 24.005 12.0834 24.2643 12.05C24.5235 12.0204 24.7568 12.1982 24.7901 12.4574C24.8086 12.6129 24.8272 12.7685 24.8346 12.924C24.8531 13.1832 24.6568 13.4054 24.3976 13.4239C24.3865 13.4239 24.3754 13.4239 24.3642 13.4239ZM7.65507 13.0018C7.63655 13.0018 7.61433 13.0018 7.59581 13.0018C7.34029 12.9684 7.15512 12.7351 7.18845 12.4759C7.20697 12.3204 7.23289 12.1648 7.25881 12.013C7.30696 11.7575 7.54767 11.5908 7.8032 11.6353C8.05872 11.6834 8.22538 11.9278 8.18094 12.1833C8.15502 12.3204 8.13649 12.4574 8.11798 12.5944C8.08835 12.8314 7.88467 13.0055 7.65136 13.0055L7.65507 13.0018ZM23.1051 9.69845C22.9533 9.69845 22.8015 9.62438 22.7126 9.48365C22.6385 9.36885 22.5571 9.25406 22.4756 9.14296C22.32 8.93557 22.3682 8.6393 22.5756 8.48747C22.7829 8.33193 23.0792 8.38008 23.231 8.58747C23.3236 8.71338 23.4125 8.84298 23.4977 8.9726C23.6384 9.19109 23.5792 9.47995 23.3607 9.62067C23.2829 9.67252 23.194 9.69845 23.1051 9.69845ZM9.11416 9.35034C9.01787 9.35034 8.92159 9.32071 8.83641 9.26145C8.62903 9.10962 8.58089 8.81336 8.73643 8.60598C8.82901 8.48007 8.92529 8.35786 9.02158 8.23565C9.18452 8.03567 9.48078 8.00605 9.68076 8.16899C9.88074 8.33194 9.91036 8.6282 9.74742 8.82818C9.65854 8.93557 9.57336 9.04666 9.49189 9.15776C9.39931 9.28367 9.25859 9.35034 9.11416 9.35034ZM20.2203 7.01727C20.1425 7.01727 20.0647 6.99876 19.9907 6.95803C19.8685 6.89137 19.7463 6.8247 19.6204 6.76174C19.387 6.64694 19.2908 6.3655 19.4056 6.13219C19.5204 5.89889 19.8018 5.8026 20.0351 5.9174C20.1758 5.98776 20.3129 6.05813 20.4499 6.1359C20.6758 6.26181 20.7573 6.54696 20.6313 6.77656C20.5462 6.92839 20.3869 7.01727 20.2203 7.01727ZM12.1323 6.821C11.9583 6.821 11.7953 6.72472 11.7102 6.56177C11.5954 6.32847 11.6879 6.04701 11.9212 5.93221C12.062 5.86185 12.2027 5.7989 12.3434 5.73594C12.5804 5.63225 12.8582 5.73964 12.9619 5.98036C13.0656 6.21737 12.9582 6.49512 12.7175 6.59881C12.5878 6.65436 12.4619 6.7136 12.3397 6.77656C12.2731 6.80989 12.2027 6.8247 12.1323 6.8247V6.821ZM16.4318 5.93221C16.4318 5.93221 16.417 5.93221 16.4059 5.93221C16.2689 5.92481 16.1282 5.9211 15.9874 5.9211C15.7282 5.9211 15.506 5.71002 15.506 5.45079C15.506 5.19156 15.706 4.98047 15.9652 4.98047H15.9874C16.143 4.98047 16.2985 4.98417 16.4541 4.99158C16.7133 5.00639 16.9133 5.22489 16.8984 5.48412C16.8836 5.73594 16.68 5.92851 16.4318 5.92851V5.93221Z" fill="#B3976B" stroke="#B3976B" stroke-width="0.5"/>
<path d="M16.1465 26.2521C15.4762 26.2521 14.7948 26.204 14.1245 26.104C13.9838 26.0818 13.8431 26.0596 13.7023 26.0336C13.4468 25.9892 13.2765 25.7448 13.3246 25.4893C13.369 25.2337 13.6172 25.0634 13.869 25.1115C13.9986 25.1337 14.1319 25.156 14.2615 25.1745C15.5429 25.3633 16.8501 25.3559 18.1092 25.1597C18.3648 25.1189 18.6055 25.293 18.6462 25.5522C18.6869 25.8077 18.5129 26.0485 18.2537 26.0892C17.5611 26.1966 16.8501 26.2521 16.1465 26.2521ZM22.3495 24.6857C22.1828 24.6857 22.0199 24.5968 21.9384 24.4412C21.8162 24.2116 21.8977 23.9302 22.1273 23.8043C23.3901 23.1192 24.5048 22.2341 25.438 21.1712C25.6084 20.975 25.9046 20.9565 26.1009 21.1268C26.2972 21.2972 26.3157 21.5934 26.1453 21.7897C25.138 22.934 23.9382 23.8894 22.5791 24.6301C22.5087 24.6671 22.431 24.6857 22.3569 24.6857H22.3495ZM9.64725 24.5634C9.56948 24.5634 9.49171 24.5449 9.41765 24.5042C8.07336 23.7487 6.8846 22.7822 5.88101 21.6305C5.71066 21.4342 5.73289 21.1379 5.92546 20.9676C6.12174 20.7972 6.41799 20.8194 6.58834 21.012C7.52157 22.0822 8.62514 22.9821 9.87685 23.6821C10.1028 23.808 10.1842 24.0968 10.0546 24.3227C9.96944 24.4746 9.81019 24.5634 9.64354 24.5634H9.64725ZM28.034 18.1753C27.9822 18.1753 27.9266 18.1679 27.8748 18.1457C27.6303 18.0568 27.5045 17.7865 27.5933 17.5457C27.8563 16.8236 28.0488 16.0681 28.1599 15.3016C28.2414 14.7498 28.2821 14.1906 28.2821 13.6388C28.2821 13.5536 28.2821 13.4684 28.2821 13.3833C28.2747 13.124 28.4821 12.9092 28.7413 12.9055C28.7413 12.9055 28.7488 12.9055 28.7525 12.9055C29.008 12.9055 29.2154 13.1092 29.2228 13.3647C29.2228 13.4573 29.2228 13.5499 29.2228 13.6388C29.2228 14.235 29.1783 14.8423 29.0894 15.4386C28.9672 16.2681 28.7599 17.0865 28.4747 17.8679C28.4044 18.0568 28.2266 18.1753 28.034 18.1753ZM3.98124 18.0198C3.79238 18.0198 3.61092 17.905 3.54055 17.7161C3.01469 16.3163 2.74805 14.8572 2.74805 13.3758V13.2203C2.75175 12.9611 2.96284 12.7574 3.21837 12.7574H3.22207C3.48129 12.7574 3.68868 12.9722 3.68498 13.2314V13.3758C3.68498 14.7461 3.9294 16.094 4.41823 17.3865C4.51081 17.6309 4.38861 17.9012 4.14419 17.9901C4.08864 18.0086 4.03309 18.0198 3.97754 18.0198H3.98124ZM27.8377 9.54666C27.6526 9.54666 27.4785 9.43927 27.4045 9.25781C26.8638 7.95426 26.0898 6.7581 25.1121 5.70266C24.9344 5.5138 24.9455 5.21753 25.1381 5.03977C25.3269 4.86202 25.6269 4.87313 25.8009 5.0657C26.8564 6.2026 27.6859 7.49135 28.271 8.89859C28.371 9.1393 28.2562 9.41335 28.0192 9.51334C27.9599 9.53926 27.9007 9.55037 27.8377 9.55037V9.54666ZM4.08494 9.39112C4.02568 9.39112 3.96643 9.38001 3.90717 9.35779C3.66646 9.26151 3.55165 8.98747 3.64794 8.74675C4.22195 7.3284 5.05148 6.03596 6.11432 4.90646C6.29208 4.71759 6.58835 4.71019 6.77721 4.88424C6.96608 5.062 6.97719 5.35825 6.79943 5.54712C5.81806 6.59144 5.05148 7.78761 4.51821 9.09857C4.44415 9.28003 4.2701 9.39112 4.08123 9.39112H4.08494ZM21.9569 3.19184C21.8829 3.19184 21.8088 3.17332 21.7421 3.13999C20.4867 2.48821 19.1276 2.04753 17.7056 1.84015C17.4501 1.80312 17.2723 1.5624 17.3093 1.30688C17.3464 1.05135 17.5834 0.873591 17.8426 0.910624C19.3684 1.13652 20.8237 1.60684 22.1754 2.30675C22.405 2.42526 22.4939 2.71042 22.3754 2.94002C22.2902 3.09926 22.1273 3.19184 21.9569 3.19184ZM9.98425 3.07333C9.8139 3.07333 9.64725 2.97706 9.56578 2.81411C9.45098 2.58081 9.54356 2.29935 9.77316 2.18455C11.1397 1.49945 12.6062 1.05505 14.1319 0.866186C14.3874 0.832857 14.6244 1.01802 14.6541 1.27355C14.6874 1.52907 14.5022 1.76609 14.2467 1.79571C12.8247 1.97347 11.4619 2.38453 10.1916 3.02149C10.125 3.05482 10.0509 3.06964 9.98054 3.06964L9.98425 3.07333Z" fill="black" stroke="black" stroke-width="0.25"/>
<path d="M16.0094 11.4619C17.2388 11.4619 18.235 12.4618 18.235 13.695C18.235 14.9282 17.2388 15.9281 16.0094 15.9281C14.7799 15.9281 13.7837 14.9282 13.7837 13.695C13.7837 12.4618 14.7799 11.4619 16.0094 11.4619Z" stroke="black" stroke-miterlimit="10"/>
</svg>
