<svg xmlns="http://www.w3.org/2000/svg" fill="none" viewBox="0 0 36 36">
  <g fill="var(--color-icon-accent, #B3976B)">
    <path d="M24.67 12.666c-.58-.58-.58-1.51 0-2.09.58-.58 1.51-.58 2.09 0 .58.58.58 1.51 0 2.09-.58.58-1.51.58-2.09 0ZM10.04 29.906c-.74.74-1.93.74-2.67 0s-.74-1.93 0-2.67 1.93-.74 2.67 0 .74 1.93 0 2.67Z"/>
  </g>
  <g stroke="var(--color-icon-accent, #B3976B)" stroke-miterlimit="12" stroke-width=".88">
    <path d="m24.54 5.476-6.97 6.97.93.93c1.51-.78 3.42-.54 4.69.73a4.027 4.027 0 0 1 .73 4.69l.93.93 6.97-6.97-7.27-7.27-.01-.01ZM26.582 2l-1.145 1.146 8.697 8.697 1.146-1.146L26.582 2ZM20.91 16.376c-.36-.35-.93-.37-1.29-.02-1.24 1.18-6.67 5.3-9.22 7.23-.68.51-1.47.88-2.31 1.02-1.05.17-2.03.85-2.61 1.63-1.04 1.42-1 3.43.1 4.81a3.973 3.973 0 0 0 7.09-2.2c.07-2.47 6.69-9.53 8.25-11.17.35-.37.34-.94-.02-1.29"/>
  </g>
  <path fill="var(--color-icon, #000)" d="M10.57 15.786a1.09 1.09 0 1 0 0-2.18 1.09 1.09 0 0 0 0 2.18Z"/>
  <path stroke="var(--color-icon, #000)" stroke-linecap="square" stroke-linejoin="round" stroke-width=".88" d="m13.37 14.346-3.64-3.65.71-.71-1.14-1.15-.71.72-.81-.81.72-.71-1.15-1.14-.71.71-.81-.8.72-.72-1.15-1.14-.71.71-1.03-1.03L.5 7.786l1.03 1.03-.72.72 1.15 1.14.71-.71.8.8-.71.72 1.14 1.14.72-.72.8.81-.71.71 1.14 1.15.72-.72 3.64 3.65 3.16-3.17v.01Z"/>
  <g stroke="var(--color-icon, #000)" stroke-miterlimit="12" stroke-width=".88">
    <path d="m20.41 21.409-3.16 3.16 2.39 2.39 3.16-3.16-2.39-2.39ZM27.017 29.164l-2.015 2.015 3.126 3.125 2.015-2.015-3.126-3.125ZM15.701 14.49l-5.331 5.332 1.145 1.146 5.332-5.332-1.146-1.145ZM23.997 24.999l-3.16 3.16 2.39 2.39 3.16-3.16-2.39-2.39Z"/>
  </g>
</svg>
