<svg width="24" height="24" viewBox="0 0 24 24" fill="none" xmlns="http://www.w3.org/2000/svg">
<g id="play">
<path id="Vector" d="M11.998 21.9999C17.5209 21.9999 21.998 17.5227 21.998 11.9999C21.998 6.47703 17.5209 1.99988 11.998 1.99988C6.4752 1.99988 1.99805 6.47703 1.99805 11.9999C1.99805 17.5227 6.4752 21.9999 11.998 21.9999Z" stroke="black" stroke-linecap="round" stroke-linejoin="round"/>
<path id="Vector_2" d="M10.002 7.99988L16.002 11.9999L10.002 15.9999V7.99988Z" stroke="black" stroke-linecap="round" stroke-linejoin="round"/>
<path id="Vector" d="M11.998 21.9999C17.5209 21.9999 21.998 17.5227 21.998 11.9999C21.998 6.47703 17.5209 1.99988 11.998 1.99988C6.4752 1.99988 1.99805 6.47703 1.99805 11.9999C1.99805 17.5227 6.4752 21.9999 11.998 21.9999Z" stroke="black" stroke-linecap="round" stroke-linejoin="round"/>
<path id="Vector_2" d="M10.002 7.99988L16.002 11.9999L10.002 15.9999V7.99988Z" stroke="black" stroke-linecap="round" stroke-linejoin="round"/>
<path id="Vector" d="M11.998 21.9999C17.5209 21.9999 21.998 17.5227 21.998 11.9999C21.998 6.47703 17.5209 1.99988 11.998 1.99988C6.4752 1.99988 1.99805 6.47703 1.99805 11.9999C1.99805 17.5227 6.4752 21.9999 11.998 21.9999Z" stroke="black" stroke-linecap="round" stroke-linejoin="round"/>
<path id="Vector_2" d="M10.002 7.99988L16.002 11.9999L10.002 15.9999V7.99988Z" stroke="black" stroke-linecap="round" stroke-linejoin="round"/>


</g>
</svg>
