<svg width="24" height="24" fill="none" viewBox="0 0 24 24"
  xmlns="http://www.w3.org/2000/svg">
  <g stroke="var(--color-icon, #000)" stroke-linecap="round" stroke-linejoin="round">
    <path d="M11.998 22c5.523 0 10-4.477 10-10s-4.477-10-10-10-10 4.477-10 10 4.477 10 10 10z"/>
    <path d="m10.002 8 6 4-6 4V8z"/>
    <path d="M11.998 22c5.523 0 10-4.477 10-10s-4.477-10-10-10-10 4.477-10 10 4.477 10 10 10z"/>
    <path d="m10.002 8 6 4-6 4V8z"/>
    <path d="M11.998 22c5.523 0 10-4.477 10-10s-4.477-10-10-10-10 4.477-10 10 4.477 10 10 10z"/>
    <path d="m10.002 8 6 4-6 4V8z"/>
  </g>
</svg>
