<svg xmlns="http://www.w3.org/2000/svg" fill="none" viewBox="0 0 32 32">
  <path stroke="var(--color-icon, #000)" stroke-miterlimit="10" d="M5 20h-.5c-1.7 0-3-1.3-3-3V8c0-1.7 1.3-4 3-4H19c1.7 0 3 1.3 3 3v7c0 3.3-2.7 6-6 6H8.5L5 24v-4Z"/>
  <path stroke="var(--color-icon-accent, #B3976B)" stroke-miterlimit="10" d="M27 24.5h.5c1.7 0 3-1.3 3-3v-10c0-1.7-1.3-3-3-3H16c-3.3 0-6 2.7-6 6v7c0 1.7 1.3 3 3 3h10.5l3.5 4v-4Z"/>
  <path stroke="var(--color-icon, #000)" stroke-miterlimit="10" d="M15.5 17.5a3 3 0 1 0 0-6 3 3 0 0 0 0 6Z"/>
  <path fill="var(--color-icon-accent, #B3976B)" d="M15.5 15.5a1 1 0 1 0 0-2 1 1 0 0 0 0 2Z"/>
</svg>
