<svg width="34" height="27" fill="none" viewBox="0 0 34 27"
  xmlns="http://www.w3.org/2000/svg">
  <path d="M19.857 1H4.12c-.41 0-.816.085-1.195.252-.378.166-.722.41-1.012.716-.29.307-.52.671-.676 1.072-.157.401-.238.831-.238 1.265v9.052c0 .876.329 1.717.914 2.337.585.62 1.379.968 2.207.968h.9v4.132l3.396-4.132h7.833c1.785 0 3.497-.751 4.759-2.088 1.262-1.336 1.97-3.15 1.97-5.04V4.306c0-.434-.08-.864-.237-1.265a3.325 3.325 0 0 0-.676-1.072 3.116 3.116 0 0 0-1.013-.716A2.97 2.97 0 0 0 19.857 1z" stroke="var(--color-icon, #000)" stroke-width=".578" stroke-miterlimit="10"/>
  <path d="M17.748 5.578h12.13c.827 0 1.62.348 2.206.968.585.62.914 1.46.914 2.337v9.06c0 .434-.08.864-.238 1.265a3.325 3.325 0 0 1-.676 1.073c-.29.306-.634.55-1.012.716a2.97 2.97 0 0 1-1.195.252h-.9v4.132l-3.396-4.133H14.139A2.969 2.969 0 0 1 12.942 21a3.112 3.112 0 0 1-1.015-.716 3.325 3.325 0 0 1-.679-1.074 3.477 3.477 0 0 1-.238-1.267v-5.238c0-.937.174-1.864.513-2.73a7.17 7.17 0 0 1 1.46-2.313 6.718 6.718 0 0 1 2.187-1.544 6.404 6.404 0 0 1 2.578-.54z"  stroke="var(--color-icon-accent, #B3976B)" stroke-width=".578" stroke-miterlimit="10"/>
  <path d="M17.088 13.757c1.54 0 2.79-1.323 2.79-2.954 0-1.632-1.25-2.955-2.79-2.955s-2.79 1.323-2.79 2.955c0 1.631 1.25 2.954 2.79 2.954z" stroke="var(--color-icon, #000)" stroke-width=".578" stroke-miterlimit="10"/>
  <path d="M17.09 11.855c.548 0 .993-.471.993-1.052 0-.581-.445-1.052-.994-1.052-.548 0-.993.47-.993 1.052 0 .581.445 1.052.993 1.052z" fill="var(--color-icon-accent, #B3976B)" />
</svg>