<svg width="32" height="32" viewBox="0 0 32 32" fill="none" xmlns="http://www.w3.org/2000/svg">
<path d="M14.0456 1.95312C8.51127 2.60818 4.21973 7.32215 4.21973 13.0422C4.21973 16.2073 5.53392 19.0663 7.64807 21.0988L6.79302 27.7534L19.2269 31.0001L19.8003 26.1433L23.7164 27.0147L24.5857 22.766H27.6324L26.3284 15.6277L26.4264 11.6525C25.8285 6.83035 22.1614 2.96326 17.4454 2.07148" stroke="black" stroke-width="1.07143" stroke-miterlimit="10"/>
<path d="M19.5287 22.6414L17.7452 19.3661M14.0821 12.1584V1H17.3595V12.2054M11.7354 15.8643C11.7354 13.6196 13.5209 11.7993 15.7208 11.7993C17.9206 11.7993 19.7062 13.6196 19.7062 15.8643C19.7062 18.109 17.9227 19.9314 15.7208 19.9314C13.5189 19.9314 11.7354 18.1111 11.7354 15.8643Z" stroke="#B3976B" stroke-width="1.07143" stroke-miterlimit="10"/>
</svg>
