<svg xmlns="http://www.w3.org/2000/svg" fill="none" viewBox="0 0 36 36">
  <path stroke="var(--color-icon, #000)" stroke-linecap="round" stroke-linejoin="round" stroke-width=".94" d="M6.77 16.11H1.1c-.33 0-.6.27-.6.6v11.02c0 .33.27.6.6.6h5.67c.33 0 .6-.27.6-.6V16.71c0-.33-.27-.6-.6-.6Zm2.69 11.2V17.09h4.6c1.94.35 3.9 1.41 5.84 2.63l2.62-.32c1.62.1 2.46 1.73.89 2.81-1.25.92-3.18.77-4.85 1.03-1.17-.06-1.22 1.51 0 1.52.42.03 2.08-.07 2.49-.07 2.11 0 3.85-.41 4.92-2.08l.53-1.26 5.31-2.63c2.66-.87 4.54 1.91 2.59 3.84-3.7 2.71-7.66 5.04-11.82 6.97-2.93 1.78-5.86 1.72-8.79 0L9.46 27.3v.01Z" clip-rule="evenodd"/>
  <g stroke="var(--color-icon-accent, #B3976B)">
    <path stroke-miterlimit="21" stroke-width=".94" d="M19.51 13.47c-.41.26-.85.44-1.33.55v.85h-1.83v-.85c-.48-.11-.92-.29-1.33-.55l-.6.6-1.29-1.29.6-.6c-.26-.41-.44-.85-.55-1.33h-.85V9.02h.85c.11-.47.29-.92.55-1.33l-.6-.6 1.29-1.29.6.6c.41-.26.86-.44 1.33-.55V5h1.83v.85c.24.05.47.13.69.22.07.03.13.06.2.09.13.06.26.13.38.2.02.01.04.02.06.04l.6-.6 1.29 1.29-.6.6c.26.41.44.85.55 1.33h.85v1.83h-.85c-.11.48-.29.92-.55 1.33l.6.6-1.29 1.29-.6-.6Z"/>
    <path stroke-width=".85" d="M28.43 17.53c-.31.2-.65.34-1.02.42v.65h-1.4v-.65c-.36-.08-.7-.22-1.02-.42l-.46.46-.99-.99.46-.46c-.2-.31-.34-.65-.42-1.02h-.65v-1.4h.65c.08-.36.22-.7.42-1.02l-.46-.46.99-.99.46.46c.31-.2.66-.34 1.02-.42v-.65h1.4v.65c.18.04.36.1.53.17.05.02.1.04.15.07a2.694 2.694 0 0 1 .34.19l.46-.46.99.99-.46.46c.2.31.34.65.42 1.02h.65v1.4h-.65c-.08.36-.22.7-.42 1.02l.46.46-.99.99-.46-.46v-.01Z"/>
  </g>
  <g fill="var(--color-icon-accent, #B3976B)">
    <path fill-rule="evenodd" d="M3.93 19.76c-.49 0-.89-.39-.89-.88s.4-.89.89-.89c.49-.01.89.39.89.88s-.4.89-.89.89Z" clip-rule="evenodd"/>
    <path d="M17.27 7.57c1.3 0 2.36 1.06 2.36 2.36 0 1.3-1.06 2.36-2.36 2.36-1.3 0-2.36-1.06-2.36-2.36 0-1.3 1.06-2.36 2.36-2.36Zm0-.79a3.15 3.15 0 1 0 0 6.3 3.15 3.15 0 0 0 0-6.3ZM26.72 13.41c.78 0 1.42.63 1.42 1.42 0 .79-.63 1.42-1.42 1.42-.79 0-1.42-.63-1.42-1.42 0-.79.63-1.42 1.42-1.42Zm0-.68c-1.15 0-2.09.94-2.09 2.09s.94 2.09 2.09 2.09 2.09-.94 2.09-2.09-.94-2.09-2.09-2.09Z"/>
  </g>
</svg>
