<svg xmlns="http://www.w3.org/2000/svg" fill="none" viewBox="0 0 36 36">
  <path fill="var(--color-icon, #000)" d="M13.11 18.15c0-.07.06-.13.13-.13h2.81c.07 0 .16.05.2.1l1.76 2.32c.04.05.11.05.16 0l1.75-2.32a.3.3 0 0 1 .21-.1h2.81c.07 0 .13.06.13.13v3.79c0 .07-.06.13-.13.13h-2.01c-.07 0-.13-.06-.13-.13V19.9c0-.07-.04-.08-.08-.03l-1.59 2.1c-.04.06-.14.1-.21.1h-1.68c-.07 0-.16-.04-.21-.1l-1.59-2.1c-.04-.05-.08-.04-.08.03v2.04c0 .07-.06.13-.13.13h-2.01c-.07 0-.13-.06-.13-.13v-3.79h.02Z"/>
  <path stroke="var(--color-icon, #000)" stroke-width=".96" d="M30.71 16.81v7.58m3.63.5-8.36-1.16m0-7.58 9.38 1.3m-29.89-.64v7.58m4.74-.66-8.36 1.16m8.36-8.74-9.38 1.3M28.81 5.61c4.04 3.11 6.63 7.93 6.63 13.35 0 6.4-3.62 11.97-8.96 14.86H9.71C4.37 30.93.75 25.36.75 18.96c0-5.42 2.59-10.24 6.63-13.35"/>
  <g stroke="var(--color-icon-accent, #B3976B)" stroke-width=".96">
    <path d="M12.49 6.46c1.71-.74 3.61-1.16 5.6-1.16 1.99 0 3.89.41 5.6 1.16m-8.6 2.58c.95-.28 1.96-.42 3-.42s2.05.15 3 .43m5.09-5.06A17.363 17.363 0 0 0 18.08 2c-2.93 0-5.68.72-8.09 1.99M10.16 24.68h2.3v1.36h11.26v-1.36h2.3V15.4h-2.3v-1.37H12.46v1.37h-2.3v9.28Z"/>
  </g>
</svg>
