<svg xmlns="http://www.w3.org/2000/svg" viewBox="0 0 32 32">
  <path fill="var(--color-icon, #000)" d="m6.857 2 2.286 6.923v4.616h1.524V8.923L12.952 2H11.43L9.905 6.615 8.38 2H6.857Zm8.381 3.077c-.812 0-1.211.13-1.708.54-.476.406-.607.719-.578 1.768v3.846c0 .766.125 1.27.584 1.719.476.447.925.589 1.702.589.813 0 1.256-.142 1.714-.59.477-.43.572-.952.572-1.718V7.385c0-.68-.12-1.322-.58-1.752-.477-.442-.968-.556-1.706-.556Zm3.81 0V12c0 .748.747 1.539 1.523 1.539.777 0 1.188-.394 1.524-.77v.77h1.524V5.077h-1.524v6.154c-.009.526-.622.769-.762.769-.157 0-.762-.033-.762-.77V5.078h-1.523Zm-3.81 1.538c.23 0 .762-.003.762.77v3.846c0 .745-.515.769-.762.769-.23 0-.762-.009-.762-.77V7.386c0-.628.33-.77.762-.77ZM4.571 15.077C1.833 15.077 0 16.91 0 19.692V27c0 2.782 1.833 5 4.571 5H27.43C30.167 32 32 30.167 32 27.385v-7.693c0-2.782-1.833-4.615-4.571-4.615H4.57Zm1.524 3.077h4.572v1.538H9.143v9.231H7.619v-9.23H6.095v-1.54Zm10.667 0h1.524v3.077a1.77 1.77 0 0 1 .687-.62c.244-.125.491-.198.741-.198.494 0 .881.18 1.146.517.265.34.473.79.473 1.455V27c0 .57-.19.925-.44 1.229-.244.303-.61.688-1.084.694-.8.01-1.229-.424-1.523-.77v.77h-1.524v-10.77Zm-6.095 2.308h1.524v6.153c0 .178.205.776.761.77.62-.006.625-.59.762-.77v-6.153h1.524v8.461h-1.524v-.77c-.283.337-.428.443-.747.602-.315.18-.637.168-.934.168-.37 0-.789-.336-.985-.589-.176-.231-.381-.469-.381-.95v-6.922Zm13.866 0c.723 0 1.232.156 1.616.564.393.41.518.887.518 1.656v2.395h-3.048v1.19c0 .43.057.703.167.865.104.177.315.256.595.253.31-.003.506-.067.61-.208.107-.126.152-.483.152-.946v-.385h1.524v.457c0 .838-.066 1.463-.477 1.872-.386.43-.99.628-1.782.628-.724 0-1.289-.216-1.694-.661-.404-.445-.616-1.055-.616-1.84v-3.62c0-.697.241-1.214.685-1.674.357-.37 1.026-.546 1.75-.546Zm-5.485 1.153c-.42 0-.756.382-.762.77V27c.006.222.342.385.762.385s.762-.328.762-.752V22.77c0-.769-.343-1.154-.762-1.154ZM24.38 22c-.42 0-.756.358-.762.77v.768h1.524v-.769A.738.738 0 0 0 24.38 22Z"/>
</svg>