<svg width="23" height="31" viewBox="0 0 23 31" fill="none" xmlns="http://www.w3.org/2000/svg">
<path fill-rule="evenodd" clip-rule="evenodd" d="M22.506 10.4401C22.6187 12.3106 22.249 14.1787 21.4313 15.8704C21.3536 16.0301 21.2718 16.1884 21.1857 16.3452L11.2635 30.973L1.34006 16.3452C1.25442 16.1888 1.17334 16.0301 1.09455 15.8704C0.276821 14.1787 -0.092913 12.3106 0.0198072 10.4401C0.132527 8.56968 0.724032 6.7578 1.73918 5.17339C2.75433 3.58899 4.16008 2.28364 5.82538 1.37903C7.49068 0.474416 9.36131 0 11.2629 0C13.1645 0 15.0351 0.474416 16.7004 1.37903C18.3657 2.28364 19.7715 3.58899 20.7866 5.17339C21.8018 6.7578 22.3933 8.56968 22.506 10.4401ZM11.2633 16.8942C14.3734 16.8942 16.8947 14.373 16.8947 11.2628C16.8947 8.15263 14.3734 5.63135 11.2633 5.63135C8.15312 5.63135 5.63184 8.15263 5.63184 11.2628C5.63184 14.373 8.15312 16.8942 11.2633 16.8942Z" fill="#A7ABAF"/>
</svg>
