<svg width="23" height="32" viewBox="0 0 23 32" fill="none" xmlns="http://www.w3.org/2000/svg">
<path fill-rule="evenodd" clip-rule="evenodd" d="M22.8048 11.3591C22.9175 13.2295 22.5478 15.0976 21.7301 16.7893C21.6524 16.9491 21.5706 17.1074 21.4846 17.2641L11.5623 31.8919L1.63889 17.2641C1.55324 17.1077 1.47217 16.9491 1.39337 16.7893C0.575649 15.0976 0.205915 13.2295 0.318635 11.3591C0.431355 9.48863 1.02286 7.67675 2.03801 6.09234C3.05316 4.50793 4.45891 3.20258 6.12421 2.29797C7.78951 1.39336 9.66014 0.918945 11.5617 0.918945C13.4633 0.918945 15.3339 1.39336 16.9992 2.29797C18.6645 3.20258 20.0703 4.50793 21.0854 6.09234C22.1006 7.67675 22.6921 9.48863 22.8048 11.3591ZM11.9155 11.6332L17.7213 11.6332L11.9155 24.1484L11.9155 16.3376L6.10644 16.3376L11.9155 3.82243L11.9155 11.6332Z" fill="#A98D60"/>
</svg>
