<svg width="24" height="33" viewBox="0 0 24 33" fill="none" xmlns="http://www.w3.org/2000/svg">
<path fill-rule="evenodd" clip-rule="evenodd" d="M23.9789 11.1234C24.099 13.1162 23.7051 15.1066 22.8338 16.909C22.7511 17.0792 22.6639 17.2479 22.5722 17.4149L12.0006 33L1.42776 17.4149C1.33651 17.2483 1.25013 17.0792 1.16618 16.909C0.294938 15.1066 -0.0989937 13.1162 0.0211034 11.1234C0.141201 9.13052 0.771416 7.20007 1.853 5.51197C2.93459 3.82387 4.43234 2.43309 6.20662 1.46928C7.98091 0.505464 9.97396 0 12 0C14.026 0 16.0191 0.505464 17.7934 1.46928C19.5677 2.43309 21.0654 3.82387 22.147 5.51197C23.2286 7.20007 23.8588 9.13052 23.9789 11.1234ZM12.0002 17.9998C15.3139 17.9998 18.0002 15.3135 18.0002 11.9998C18.0002 8.68607 15.3139 5.99978 12.0002 5.99978C8.68647 5.99978 6.00018 8.68607 6.00018 11.9998C6.00018 15.3135 8.68647 17.9998 12.0002 17.9998Z" fill="#A98D60"/>
</svg>
