<?xml version="1.0" standalone="no"?>
<!DOCTYPE svg PUBLIC "-//W3C//DTD SVG 20010904//EN"
 "http://www.w3.org/TR/2001/REC-SVG-20010904/DTD/svg10.dtd">
<svg version="1.0" xmlns="http://www.w3.org/2000/svg"
 width="64.000000pt" height="64.000000pt" viewBox="0 0 64.000000 64.000000"
 preserveAspectRatio="xMidYMid meet">

<g transform="translate(0.000000,64.000000) scale(0.100000,-0.100000)"
fill="#000000" stroke="none">
<path d="M357 627 c-4 -10 -7 -34 -7 -52 0 -40 -14 -81 -35 -101 -24 -24 -18
-34 19 -34 26 0 36 5 41 21 6 17 14 20 46 18 29 -3 45 2 61 18 l21 22 -26 6
c-20 5 -27 14 -27 30 0 18 4 22 19 18 15 -4 19 2 23 27 3 17 2 33 -1 35 -3 2
-27 -2 -52 -8 -31 -8 -44 -16 -41 -26 3 -8 -1 -12 -9 -9 -7 2 -16 15 -19 29
-5 21 -7 22 -13 6z"/>
<path d="M528 589 c-26 -15 -22 -32 12 -51 28 -16 29 -16 35 2 5 17 -13 60
-25 60 -3 0 -13 -5 -22 -11z"/>
<path d="M589 576 c19 -22 3 -66 -23 -66 -36 0 -60 -24 -61 -61 0 -31 -2 -34
-27 -31 -25 2 -28 -1 -28 -27 0 -20 8 -36 26 -50 24 -19 25 -21 7 -21 -15 0
-26 -13 -41 -47 -26 -61 -66 -229 -57 -243 3 -5 1 -10 -4 -10 -15 0 -14 36 4
122 9 40 13 85 9 101 -5 23 0 35 21 57 25 26 27 33 21 74 l-7 46 -62 0 -61 0
-101 -100 c-64 -62 -110 -100 -123 -100 -29 0 -36 -16 -18 -41 13 -19 12 -28
-10 -92 -13 -39 -24 -74 -24 -79 0 -9 94 -11 103 -1 4 3 2 12 -5 20 -15 18 -3
27 55 43 l48 13 -20 20 -20 20 -51 -33 c-28 -18 -55 -41 -61 -52 -20 -37 -20
-11 0 35 18 42 23 46 64 52 44 7 45 8 52 52 4 29 2 49 -6 59 -16 19 -8 25 13
10 10 -8 21 -37 27 -76 6 -34 12 -64 14 -67 3 -2 10 10 17 26 8 21 20 31 38
33 24 3 27 7 27 38 -1 19 -5 60 -9 90 l-8 55 27 -35 c19 -25 24 -42 20 -60 -3
-14 -5 -31 -5 -37 5 -44 3 -115 -4 -161 l-9 -52 52 0 c55 0 63 10 34 42 -15
17 -15 22 5 71 11 28 24 68 28 87 3 19 20 52 36 72 24 31 29 46 28 85 -4 99
-3 101 39 122 44 23 70 73 50 97 -6 8 -16 14 -21 14 -6 0 -6 -6 1 -14z"/>
<path d="M386 455 c-4 -11 2 -15 24 -15 20 0 30 5 30 15 0 9 -9 15 -24 15 -13
0 -26 -7 -30 -15z"/>
</g>
</svg>
